# xmcd
#
# Track frame offsets:
#	182
#	19360
#	36322
#	50605
#	65977
#	87177
#	107662
#	131445
#	177115
#	187512
#	199800
#	213365
#	223905
#	237137
#	244017
#	254422
#	264540
#	290257
#	304415
#
# Disc length: 4157 seconds
#
# Revision: 1
# Processed by: cddbd v1.4PL0 Copyright (c) Steve Scherf et al.
# Submitted via: EasyCDDAExtractor 5.0.6
#
DISCID=1d103b13
DTITLE=QUILAPAYUN - Umbral canciones ineditas
DYEAR=1900
DGENRE=
TTITLE0=Arriba en la cordilera
TTITLE1=El arbol
TTITLE2=Ronda del ausente
TTITLE3=Paloma quiero contarte
TTITLE4=La vida total
TTITLE5=Discurso
TTITLE6=Canción para Victor Jara
TTITLE7=Americas(canto popular)
TTITLE8=Por Vietnam
TTITLE9=¿Que dira el santo padre?
TTITLE10=Cancion funebre para el che guevara
TTITLE11=Mamma mia dame ciento lire
TTITLE12=La samba del riego
TTITLE13=Cuecas de Joaquin Murieta
TTITLE14=Himno de las juventudes mundiales
TTITLE15=Que la tortilla se vuelva
TTITLE16=Canto a la pampa
TTITLE17=La bola
TTITLE18=Los pueblos americanos
EXTD=
EXTT0=
EXTT1=
EXTT2=
EXTT3=
EXTT4=
EXTT5=
EXTT6=
EXTT7=
EXTT8=
EXTT9=
EXTT10=
EXTT11=
EXTT12=
EXTT13=
EXTT14=
EXTT15=
EXTT16=
EXTT17=
EXTT18=
PLAYORDER=
